<svg width="1529" height="639" viewBox="0 0 1529 639" fill="none" xmlns="http://www.w3.org/2000/svg">
<path d="M933.487 204.244C938.453 203.211 947.833 204.283 952.574 206.022C1007.96 226.356 969.141 304.053 956.735 339.538C961.541 334.244 968.7 323.532 973.179 317.424C982.184 304.931 991.901 292.966 1002.28 281.588C1021.44 260.924 1049.4 234.504 1079.13 233.631C1092.11 233.176 1104.74 237.949 1114.18 246.88C1154.14 285.427 1116.95 366.664 1119.57 414.107C1120.43 429.79 1120.98 443.865 1132.78 456.515C1136.5 460.504 1141.91 464.283 1145.95 468.277C1151.91 474.279 1155.29 482.372 1155.37 490.83C1155.62 523.182 1125.18 542.006 1095.38 541.912C1074.77 541.878 1055.03 533.604 1040.54 518.933C1004.71 482.623 1008.98 423.352 1018.64 377.806C1020.65 368.352 1023.33 357.15 1023.43 347.581C999.256 373.975 979.204 412.045 960.014 442.736C938.884 476.531 915.881 544.792 866.913 541.689C815.208 538.412 816.314 483.734 819.697 445.218C807.862 477.673 791.792 495.486 763.719 514.728C753.825 524.435 723.274 535.719 709.857 539.662C631.308 562.746 549.082 512.731 543.655 428.713C540.204 375.283 567.915 320.994 601.739 281.154C630.923 247.644 671.83 216.855 717.215 212.165C756.804 208.073 792.561 229.689 794.678 271.584C796.328 305.127 781.485 336.999 759.334 361.601C725.648 399.01 695.905 414.921 646.415 418.276C656.434 468.311 729.068 439.858 754.087 418.686C764.188 410.146 775.798 397.453 788.841 395.133C795.85 393.82 803.093 395.391 808.93 399.491C818.31 406.178 820.596 414.697 822.489 425.219C832.327 367.66 858.302 275.966 893.439 227.184C902.894 214.046 917.099 205.967 933.487 204.244ZM663.844 362.007C686.377 356.822 708.894 337.491 721.059 318.148C726.301 309.814 735.068 294.776 718.259 294.079C692.037 301.237 665.802 337.91 657.378 362.803L663.844 362.007Z" fill="white"/>
<path d="M254.113 85.2516C256.186 84.9021 261.143 84.9414 263.136 85.2179C341.806 96.1438 267.62 197.318 247.063 232.101C232.454 256.733 218.511 281.755 205.247 307.138C238.264 282.263 276.163 254.76 320.689 271.086C375.79 291.289 377.97 359.268 359.746 406.277C338.111 462.083 297.562 513.383 242.397 539.179C203.582 552.781 159.322 556.83 137.32 513.244C135.516 515.962 133.698 518.694 131.707 521.28C121.561 534.454 108.319 544.078 91.4987 546.034C79.0224 547.485 65.8489 544.674 55.9344 536.731C42.7647 526.181 37.2672 508.65 35.694 492.431C26.5853 398.545 109.079 214.502 169.323 141.705C191.021 115.484 218.552 88.6353 254.113 85.2516ZM168.825 467.068C215.547 470.353 256.874 402.246 259.461 360.883C259.781 355.75 259.247 351.131 256.507 346.689C254.181 344.91 253.874 344.723 250.969 344.455C217.307 355.395 183.777 405.179 168.614 435.541C166.529 439.715 158.208 457.381 157.981 461.014C160.38 464.599 164.774 466.013 168.825 467.068Z" fill="white"/>
<path d="M1349.36 238.926C1378.22 236.163 1423.27 240.907 1442.33 264.938C1450.63 275.3 1454.42 288.562 1452.84 301.743C1449.17 333.137 1416.02 363.596 1393.36 383.225C1366.16 406.785 1336.87 428.86 1308.71 451.359C1347.04 443.158 1383.84 431.756 1423.18 426.476C1452.91 421.807 1490.89 424.815 1495.37 462.074C1499.27 494.613 1474.16 513.97 1446.53 523.665C1403.82 538.653 1359.27 546.413 1314.45 551.006C1298.12 554.569 1247.5 552.475 1229.65 548.733C1212.45 546.288 1185.93 536.19 1176.78 520.518C1143.32 463.195 1233.46 408.21 1270.46 378.514C1285.35 366.556 1304.07 352.798 1319.12 342.799C1296.08 351.305 1263.25 356.983 1241.93 364.54C1188.14 383.609 1149.08 337.449 1184.15 294.878C1215.42 256.916 1301.82 242.92 1349.36 238.926Z" fill="white"/>
<path d="M535.947 87.0993C536.776 87.0038 537.608 86.9335 538.442 86.8885C571.289 84.8907 591.489 108.379 588.794 140.489C586.088 170.114 573.559 196.998 562.549 224.392C538.052 285.342 507.407 347.945 500.622 414.077C498.559 429.312 501.622 462.268 518.309 469.936C544.985 482.196 547.788 501.017 528.108 524.232C515.068 539.613 492.06 547.135 470.679 548.005C451.625 548.102 434.904 545.322 418.698 534.443C397.009 519.886 386.288 495.906 381.416 471.064C364.154 383.062 421.082 212.969 470.688 139.286C487.126 114.87 505.587 93.0636 535.947 87.0993Z" fill="white"/>
</svg>
