<svg width="586" height="639" viewBox="0 0 586 639" fill="none" xmlns="http://www.w3.org/2000/svg">
<path d="M116 143.259C136.965 142.284 162.723 144.47 182.965 143.192L182.948 265.846C197.019 247.323 212.74 232.644 236.736 228.776C366.374 207.88 393.474 373.892 334.859 457.357C309.339 488.562 279.209 498.512 239.927 493.732C210.51 490.152 198.818 478.572 181.806 456.337L181.803 488.062L116.06 488.032L116 143.259ZM243.823 439.512C257.682 438.192 267.699 433.437 276.594 422.437C293.399 401.322 295.555 371.978 292.885 346.068C290.97 327.496 285.319 308.222 270.379 296.006C260.645 288.046 245.018 283.911 232.606 285.77C218.644 286.982 206.84 291.277 197.839 302.067C182.002 321.051 179.045 352.117 181.339 376.072C184.996 414.272 203.569 441.072 243.823 439.512Z" fill="white"/>
<path d="M420.658 400.262C444.158 397.152 465.743 413.637 468.933 437.127C472.118 460.612 455.703 482.257 432.228 485.517C408.638 488.797 386.878 472.292 383.678 448.692C380.473 425.097 397.053 403.387 420.658 400.262Z" fill="white"/>
</svg>
