<svg width="1237" height="381" viewBox="0 0 1237 381" fill="none" xmlns="http://www.w3.org/2000/svg">
<path d="M65.6293 0.134785L85.5697 0C85.5373 48.5409 84.9563 98.2398 85.6677 146.687C96.7741 125.512 105.171 110.803 127.422 98.891C151.252 86.1409 182.685 85.081 208.099 93.0346C275.432 114.296 289.841 192.734 285.089 254.447C281.334 303.211 265.99 347.094 220.52 370.727C188.358 384.465 148.463 384.796 118.711 364.775C102.369 353.778 94.2051 340.838 85.8585 323.597C84.8146 336.648 85.4691 360.752 85.4192 374.99C58.0107 374.271 27.5712 374.825 0 374.949L0.0568504 0.159306L65.6293 0.134785ZM148.672 310.168C195.069 302.34 203.59 251.682 197.11 212.036C191.684 178.838 171.383 156.045 136.098 158.332C90.5284 165.356 80.815 216.86 87.1745 255.17C92.8874 289.583 112.693 312.036 148.672 310.168Z" fill="#FFF6E0"/>
<path d="M391.101 5.88477C392.438 9.69658 391.433 76.2279 391.44 85.0462L391.461 380.41L310.473 380.352C308.231 380.526 307.774 380.747 305.914 379.702L306.004 5.92326L391.101 5.88477Z" fill="#FFF6E0"/>
<path d="M536.348 88.29C541.582 87.7902 546.841 87.5994 552.097 87.7193C616.82 88.6418 668.638 124.564 682.673 189.755C687.319 211.338 687.135 231.441 686.777 253.377C624.118 253.033 558.69 252.531 496.162 253.508C498.082 299.91 526.906 329.164 576.455 315.311C590.15 311.48 601.202 299.991 607.265 287.184C630.173 286.258 657.972 286.977 681.247 286.955C683.207 287.329 682.498 286.935 683.933 288.319C684.134 301.909 667.885 328.767 658.855 339.016C611.5 392.754 507.805 393.215 455.478 346.583C399.753 296.924 397.64 184.525 447.449 129.545C470.12 104.522 502.749 89.9906 536.348 88.29ZM496.646 202.016L559.184 201.872C573.49 201.875 591.437 202.405 605.437 201.788C599.102 164.841 580.222 148.002 542.575 150.175C512.984 155.988 503.036 174.554 496.646 202.016Z" fill="#FFF6E0"/>
<path d="M870.185 93.989C873.694 93.751 877.212 93.6223 880.729 93.603C905.413 93.533 931.015 100.857 948.804 118.683C983.104 153.067 976.489 208.189 976.489 253.017L976.524 380.499C949.845 379.446 918.092 380.225 891.028 380.389L891.054 280.997C891.054 259.31 893.163 209.243 886.583 191.033C882.847 180.787 875.173 172.457 865.268 167.891C838.607 155.61 809.565 167.457 797.438 193.934C790.595 209.738 792.765 251.087 792.765 270.472L792.748 380.322L706.945 380.284C708.162 287.545 707.007 192.215 707.033 99.2319C731.76 98.0109 767.425 98.8827 792.573 99.0919C793.483 114.786 792.582 133.852 793.063 150.258C811.123 114.02 829.279 98.6254 870.185 93.989Z" fill="#FFF6E0"/>
<path d="M1000.16 99.6717C1076.19 98.4349 1155.93 99.6979 1232.25 99.5684L1232.24 152.157C1190.4 207.112 1146.39 261.558 1105.07 316.737C1147.61 317.721 1193.38 316.887 1236.18 316.893C1235.53 337.242 1236 359.972 1235.99 380.499L1227.14 380.301L997.105 380.39C996.93 364.877 996.974 349.362 997.236 333.85C1028.19 293.552 1063.24 253.671 1094.67 213.536C1105.8 199.324 1125.5 177.313 1135.05 162.907L1000.11 162.928L1000.16 99.6717Z" fill="#FFF6E0"/>
</svg>
