<svg width="1529" height="639" viewBox="0 0 1529 639" fill="none" xmlns="http://www.w3.org/2000/svg">
<path d="M235.629 129.135L255.57 129C255.537 177.541 254.956 227.24 255.668 275.687C266.774 254.512 275.171 239.803 297.422 227.891C321.252 215.141 352.685 214.081 378.099 222.035C445.432 243.296 459.841 321.734 455.089 383.447C451.334 432.211 435.99 476.094 390.52 499.727C358.358 513.465 318.463 513.796 288.711 493.775C272.369 482.778 264.205 469.838 255.858 452.597C254.815 465.648 255.469 489.752 255.419 503.99C228.011 503.271 197.571 503.825 170 503.949L170.057 129.159L235.629 129.135ZM318.672 439.168C365.069 431.34 373.59 380.682 367.11 341.036C361.684 307.838 341.383 285.045 306.098 287.332C260.528 294.356 250.815 345.86 257.174 384.17C262.887 418.583 282.693 441.036 318.672 439.168Z" fill="white"/>
<path d="M674.788 217.61C680.021 217.11 685.28 216.919 690.536 217.039C755.26 217.962 807.077 253.884 821.112 319.075C825.759 340.658 825.575 360.761 825.216 382.697C762.557 382.353 697.129 381.851 634.602 382.828C636.521 429.23 665.346 458.484 714.894 444.631C728.59 440.8 739.641 429.312 745.705 416.505C768.612 415.578 796.411 416.297 819.686 416.275C821.646 416.649 820.937 416.255 822.372 417.639C822.574 431.229 806.325 458.087 797.295 468.337C749.94 522.074 646.244 522.535 593.918 475.903C538.192 426.244 536.079 313.845 585.889 258.865C608.559 233.842 641.189 219.311 674.788 217.61ZM635.086 331.336L697.624 331.192C711.929 331.195 729.876 331.725 743.876 331.108C737.541 294.161 718.661 277.322 681.014 279.495C651.424 285.308 641.476 303.874 635.086 331.336Z" fill="white"/>
<path d="M996.55 217.418C1000.06 217.18 1003.58 217.052 1007.09 217.032C1031.78 216.962 1057.38 224.287 1075.17 242.113C1109.47 276.497 1102.85 331.619 1102.85 376.446L1102.89 503.929C1076.21 502.876 1044.46 503.655 1017.39 503.819L1017.42 404.427C1017.42 382.739 1019.53 332.673 1012.95 314.463C1009.21 304.217 1001.54 295.887 991.632 291.32C964.971 279.039 935.93 290.886 923.802 317.363C916.96 333.167 919.13 374.517 919.13 393.902L919.112 503.751L833.31 503.713C834.526 410.975 833.371 315.644 833.397 222.661C858.125 221.44 893.79 222.312 918.937 222.521C919.847 238.216 918.946 257.281 919.427 273.687C937.487 237.449 955.643 222.055 996.55 217.418Z" fill="white"/>
<path d="M1123.83 223.061C1199.86 221.825 1279.59 223.088 1355.92 222.958L1355.91 275.547C1314.07 330.501 1270.06 384.948 1228.74 440.127C1271.28 441.11 1317.05 440.276 1359.85 440.282C1359.2 460.632 1359.67 483.362 1359.66 503.888L1350.81 503.691L1120.77 503.78C1120.6 488.267 1120.64 472.751 1120.9 457.24C1151.86 416.941 1186.91 377.06 1218.34 336.926C1229.47 322.714 1249.17 300.702 1258.72 286.296L1123.77 286.317L1123.83 223.061Z" fill="white"/>
<path d="M545.501 129.238C546.838 133.05 545.833 199.581 545.84 208.4L545.861 503.763L464.873 503.705C462.631 503.88 462.175 504.1 460.314 503.055L460.405 129.277L545.501 129.238Z" fill="white"/>
</svg>
